<?xml version="1.0" standalone="yes"?>

<svg version="1.1" viewBox="0.0 0.0 960.0 720.0" fill="none" stroke="none" stroke-linecap="square" stroke-miterlimit="10" xmlns="http://www.w3.org/2000/svg" xmlns:xlink="http://www.w3.org/1999/xlink"><clipPath id="p.0"><path d="m0 0l960.0 0l0 720.0l-960.0 0l0 -720.0z" clip-rule="nonzero"></path></clipPath><g clip-path="url(#p.0)"><path fill="#000000" fill-opacity="0.0" d="m0 0l960.0 0l0 720.0l-960.0 0z" fill-rule="nonzero"></path><path fill="#000000" fill-opacity="0.0" d="m283.81628 198.27034l164.56693 0l0 42.897644l-164.56693 0z" fill-rule="nonzero"></path><path fill="#3d85c6" d="m310.71338 215.09659q0.21875 0 0.515625 0.03125q0.296875 0.03125 0.578125 0.078125q0.296875 0.046875 0.53125 0.09375q0.234375 0.046875 0.34375 0.09375l-0.296875 1.53125q-0.21875 -0.078125 -0.703125 -0.171875q-0.484375 -0.109375 -1.234375 -0.109375q-0.5 0 -0.984375 0.109375q-0.484375 0.09375 -0.640625 0.140625l0 8.296875l-1.765625 0l0 -9.46875q0.625 -0.21875 1.5625 -0.421875q0.9375 -0.203125 2.09375 -0.203125zm11.420074 9.8125q-0.609375 0.140625 -1.609375 0.3125q-1.0 0.171875 -2.3125 0.171875q-1.140625 0 -1.921875 -0.328125q-0.765625 -0.328125 -1.25 -0.9375q-0.46875 -0.609375 -0.6875 -1.4375q-0.203125 -0.828125 -0.203125 -1.828125l0 -5.546875l1.765625 0l0 5.15625q0 1.8125 0.5625 2.59375q0.578125 0.78125 1.921875 0.78125q0.296875 0 0.59375 -0.015625q0.3125 -0.03125 0.578125 -0.046875q0.265625 -0.03125 0.484375 -0.0625q0.21875 -0.03125 0.3125 -0.0625l0 -8.34375l1.765625 0l0 9.59375zm2.8336792 -9.3125q0.609375 -0.15625 1.609375 -0.328125q1.015625 -0.171875 2.328125 -0.171875q1.171875 0 1.953125 0.34375q0.78125 0.328125 1.25 0.921875q0.46875 0.59375 0.65625 1.4375q0.1875 0.828125 0.1875 1.84375l0 5.546875l-1.765625 0l0 -5.171875q0 -0.90625 -0.125 -1.546875q-0.125 -0.65625 -0.40625 -1.046875q-0.28125 -0.40625 -0.765625 -0.578125q-0.46875 -0.1875 -1.171875 -0.1875q-0.28125 0 -0.59375 0.015625q-0.296875 0.015625 -0.578125 0.046875q-0.28125 0.03125 -0.5 0.078125q-0.21875 0.03125 -0.3125 0.046875l0 8.34375l-1.765625 0l0 -9.59375zm17.315186 8.328125q1.09375 0 1.609375 -0.28125q0.53125 -0.296875 0.53125 -0.921875q0 -0.640625 -0.515625 -1.015625q-0.515625 -0.390625 -1.6875 -0.859375q-0.578125 -0.234375 -1.109375 -0.46875q-0.515625 -0.234375 -0.890625 -0.5625q-0.375 -0.328125 -0.609375 -0.78125q-0.234375 -0.453125 -0.234375 -1.125q0 -1.3125 0.96875 -2.078125q0.96875 -0.765625 2.640625 -0.765625q0.421875 0 0.84375 0.046875q0.421875 0.046875 0.78125 0.109375q0.359375 0.0625 0.625 0.140625q0.28125 0.078125 0.4375 0.140625l-0.328125 1.515625q-0.28125 -0.15625 -0.890625 -0.3125q-0.609375 -0.15625 -1.46875 -0.15625q-0.734375 0 -1.296875 0.296875q-0.546875 0.28125 -0.546875 0.921875q0 0.3125 0.125 0.5625q0.125 0.25 0.375 0.453125q0.265625 0.1875 0.640625 0.359375q0.390625 0.171875 0.921875 0.359375q0.703125 0.265625 1.25 0.53125q0.546875 0.25 0.9375 0.59375q0.390625 0.34375 0.59375 0.828125q0.21875 0.484375 0.21875 1.1875q0 1.375 -1.015625 2.078125q-1.015625 0.703125 -2.90625 0.703125q-1.296875 0 -2.046875 -0.21875q-0.734375 -0.21875 -1.0 -0.34375l0.3125 -1.515625q0.3125 0.109375 0.96875 0.34375q0.671875 0.234375 1.765625 0.234375zm7.6800537 -8.609375l3.75 0l0 1.484375l-3.75 0l0 4.546875q0 0.75 0.109375 1.234375q0.125 0.484375 0.34375 0.765625q0.234375 0.265625 0.578125 0.390625q0.34375 0.109375 0.796875 0.109375q0.796875 0 1.28125 -0.171875q0.484375 -0.1875 0.671875 -0.265625l0.34375 1.453125q-0.265625 0.140625 -0.9375 0.328125q-0.65625 0.203125 -1.515625 0.203125q-1.0 0 -1.65625 -0.25q-0.65625 -0.25 -1.0625 -0.765625q-0.390625 -0.515625 -0.5625 -1.265625q-0.15625 -0.75 -0.15625 -1.734375l0 -8.828125l1.765625 -0.296875l0 3.0625zm9.187317 8.609375q0.625 0 1.109375 -0.03125q0.484375 -0.03125 0.8125 -0.109375l0 -2.9375q-0.1875 -0.109375 -0.625 -0.171875q-0.421875 -0.0625 -1.03125 -0.0625q-0.390625 0 -0.84375 0.0625q-0.4375 0.046875 -0.8125 0.234375q-0.375 0.171875 -0.625 0.484375q-0.234375 0.3125 -0.234375 0.828125q0 0.953125 0.59375 1.328125q0.609375 0.375 1.65625 0.375zm-0.140625 -8.859375q1.0625 0 1.78125 0.28125q0.734375 0.265625 1.171875 0.78125q0.453125 0.5 0.640625 1.1875q0.203125 0.6875 0.203125 1.53125l0 6.171875q-0.234375 0.03125 -0.640625 0.109375q-0.40625 0.0625 -0.921875 0.109375q-0.515625 0.0625 -1.109375 0.109375q-0.59375 0.046875 -1.1875 0.046875q-0.84375 0 -1.546875 -0.171875q-0.703125 -0.171875 -1.21875 -0.53125q-0.5 -0.375 -0.796875 -0.984375q-0.28125 -0.609375 -0.28125 -1.453125q0 -0.828125 0.328125 -1.40625q0.34375 -0.59375 0.90625 -0.953125q0.578125 -0.359375 1.328125 -0.53125q0.765625 -0.171875 1.609375 -0.171875q0.265625 0 0.546875 0.03125q0.28125 0.015625 0.53125 0.0625q0.265625 0.046875 0.453125 0.09375q0.1875 0.03125 0.265625 0.0625l0 -0.5q0 -0.4375 -0.09375 -0.859375q-0.09375 -0.4375 -0.34375 -0.765625q-0.25 -0.328125 -0.671875 -0.53125q-0.421875 -0.203125 -1.109375 -0.203125q-0.875 0 -1.53125 0.125q-0.65625 0.125 -0.984375 0.25l-0.203125 -1.453125q0.34375 -0.15625 1.140625 -0.296875q0.796875 -0.140625 1.734375 -0.140625zm8.191711 0.25l3.75 0l0 1.484375l-3.75 0l0 4.546875q0 0.75 0.109375 1.234375q0.125 0.484375 0.34375 0.765625q0.234375 0.265625 0.578125 0.390625q0.34375 0.109375 0.796875 0.109375q0.796875 0 1.28125 -0.171875q0.484375 -0.1875 0.671875 -0.265625l0.34375 1.453125q-0.265625 0.140625 -0.9375 0.328125q-0.65625 0.203125 -1.515625 0.203125q-1.0 0 -1.65625 -0.25q-0.65625 -0.25 -1.0625 -0.765625q-0.390625 -0.515625 -0.5625 -1.265625q-0.15625 -0.75 -0.15625 -1.734375l0 -8.828125l1.765625 -0.296875l0 3.0625zm5.296692 4.953125q0 -1.3125 0.375 -2.28125q0.390625 -0.984375 1.015625 -1.625q0.625 -0.65625 1.4375 -0.96875q0.8125 -0.328125 1.671875 -0.328125q2.0 0 3.0625 1.25q1.0625 1.234375 1.0625 3.78125q0 0.109375 0 0.296875q0 0.1875 -0.015625 0.328125l-6.765625 0q0.109375 1.546875 0.890625 2.34375q0.78125 0.796875 2.4375 0.796875q0.921875 0 1.5625 -0.15625q0.640625 -0.171875 0.953125 -0.328125l0.25 1.484375q-0.3125 0.171875 -1.125 0.359375q-0.8125 0.203125 -1.828125 0.203125q-1.296875 0 -2.234375 -0.390625q-0.9375 -0.390625 -1.546875 -1.078125q-0.609375 -0.6875 -0.90625 -1.625q-0.296875 -0.9375 -0.296875 -2.0625zm6.78125 -0.96875q0.015625 -1.203125 -0.609375 -1.96875q-0.609375 -0.765625 -1.6875 -0.765625q-0.609375 0 -1.078125 0.234375q-0.46875 0.234375 -0.796875 0.625q-0.3125 0.375 -0.5 0.875q-0.171875 0.484375 -0.234375 1.0l4.90625 0zm4.194458 -3.703125q0.609375 -0.15625 1.609375 -0.328125q1.0 -0.171875 2.3125 -0.171875q0.953125 0 1.59375 0.265625q0.640625 0.25 1.078125 0.75q0.140625 -0.09375 0.421875 -0.265625q0.28125 -0.171875 0.703125 -0.328125q0.421875 -0.171875 0.921875 -0.296875q0.515625 -0.125 1.109375 -0.125q1.140625 0 1.859375 0.34375q0.71875 0.328125 1.125 0.9375q0.421875 0.609375 0.5625 1.453125q0.140625 0.828125 0.140625 1.8125l0 5.546875l-1.765625 0l0 -5.171875q0 -0.875 -0.09375 -1.5q-0.078125 -0.625 -0.3125 -1.03125q-0.234375 -0.421875 -0.65625 -0.625q-0.40625 -0.203125 -1.046875 -0.203125q-0.890625 0 -1.46875 0.234375q-0.578125 0.234375 -0.796875 0.4375q0.15625 0.484375 0.234375 1.078125q0.078125 0.59375 0.078125 1.234375l0 5.546875l-1.765625 0l0 -5.171875q0 -0.875 -0.109375 -1.5q-0.09375 -0.625 -0.328125 -1.03125q-0.234375 -0.421875 -0.640625 -0.625q-0.40625 -0.203125 -1.03125 -0.203125q-0.265625 0 -0.578125 0.015625q-0.296875 0.015625 -0.578125 0.046875q-0.28125 0.03125 -0.515625 0.078125q-0.21875 0.03125 -0.296875 0.046875l0 8.34375l-1.765625 0l0 -9.59375zm15.516174 4.671875q0 -1.3125 0.375 -2.28125q0.390625 -0.984375 1.015625 -1.625q0.625 -0.65625 1.4375 -0.96875q0.8125 -0.328125 1.671875 -0.328125q2.0 0 3.0625 1.25q1.0625 1.234375 1.0625 3.78125q0 0.109375 0 0.296875q0 0.1875 -0.015625 0.328125l-6.765625 0q0.109375 1.546875 0.890625 2.34375q0.78125 0.796875 2.4375 0.796875q0.921875 0 1.5625 -0.15625q0.640625 -0.171875 0.953125 -0.328125l0.25 1.484375q-0.3125 0.171875 -1.125 0.359375q-0.8125 0.203125 -1.828125 0.203125q-1.296875 0 -2.234375 -0.390625q-0.9375 -0.390625 -1.546875 -1.078125q-0.609375 -0.6875 -0.90625 -1.625q-0.296875 -0.9375 -0.296875 -2.0625zm6.78125 -0.96875q0.015625 -1.203125 -0.609375 -1.96875q-0.609375 -0.765625 -1.6875 -0.765625q-0.609375 0 -1.078125 0.234375q-0.46875 0.234375 -0.796875 0.625q-0.3125 0.375 -0.5 0.875q-0.171875 0.484375 -0.234375 1.0l4.90625 0zm4.194458 -3.703125q0.609375 -0.15625 1.609375 -0.328125q1.0156555 -0.171875 2.3281555 -0.171875q1.171875 0 1.953125 0.34375q0.78125 0.328125 1.25 0.921875q0.46875 0.59375 0.65625 1.4375q0.1875 0.828125 0.1875 1.84375l0 5.546875l-1.765625 0l0 -5.171875q0 -0.90625 -0.125 -1.546875q-0.125 -0.65625 -0.40625 -1.046875q-0.28125 -0.40625 -0.765625 -0.578125q-0.46875 -0.1875 -1.171875 -0.1875q-0.28125 0 -0.59375 0.015625q-0.296875 0.015625 -0.578125 0.046875q-0.28125 0.03125 -0.5 0.078125q-0.21875 0.03125 -0.31253052 0.046875l0 8.34375l-1.765625 0l0 -9.59375zm12.36496 -0.28125l3.75 0l0 1.484375l-3.75 0l0 4.546875q0 0.75 0.109375 1.234375q0.125 0.484375 0.34375 0.765625q0.234375 0.265625 0.578125 0.390625q0.34375 0.109375 0.796875 0.109375q0.796875 0 1.28125 -0.171875q0.484375 -0.1875 0.671875 -0.265625l0.34375 1.453125q-0.265625 0.140625 -0.9375 0.328125q-0.65625 0.203125 -1.515625 0.203125q-1.0 0 -1.65625 -0.25q-0.65625 -0.25 -1.0625 -0.765625q-0.390625 -0.515625 -0.5625 -1.265625q-0.15625 -0.75 -0.15625 -1.734375l0 -8.828125l1.765625 -0.296875l0 3.0625z" fill-rule="nonzero"></path><path fill="#000000" fill-opacity="0.0" d="m263.76953 289.57086c0 -24.167297 57.967285 -46.934875 100.50137 -48.33461c42.534058 -1.3997345 69.63489 18.568375 100.50137 37.836594c30.866486 19.26825 65.4986 37.83661 130.99725 37.83661" fill-rule="nonzero"></path><path stroke="#6fa8dc" stroke-width="8.0" stroke-linejoin="round" stroke-linecap="butt" d="m263.76953 289.57086c0 -24.167297 57.967316 -46.934875 100.50137 -48.334595c42.534058 -1.3997498 69.63489 18.56836 100.50137 37.83658c15.433258 9.634125 31.807892 19.093262 52.511597 26.14389c5.1759033 1.7626648 10.6223755 3.3747864 16.392334 4.801483c2.8850098 0.7133179 5.85083 1.38031 8.904236 1.996582c1.5266724 0.308136 3.0752563 0.6036072 4.6464844 0.8858032l0.70007324 0.12384033" fill-rule="evenodd"></path><path fill="#6fa8dc" stroke="#6fa8dc" stroke-width="8.0" stroke-linecap="butt" d="m546.8575 326.19495l37.255188 -10.232086l-35.11615 -16.108917z" fill-rule="evenodd"></path><path fill="#000000" fill-opacity="0.0" d="m665.7748 344.21652c0 87.60632 -63.66931 175.21262 -127.33862 175.21262" fill-rule="nonzero"></path><path stroke="#f1c232" stroke-width="4.0" stroke-linejoin="round" stroke-linecap="butt" d="m665.7748 344.21652c0 43.80316 -15.917358 87.60632 -39.793335 120.45868c-11.937988 16.426178 -25.865662 30.114655 -40.788147 39.696594c-7.4612427 4.790985 -15.171143 8.555267 -23.005493 11.121918l-0.072631836 0.0234375" fill-rule="evenodd"></path><path fill="#f1c232" stroke="#f1c232" stroke-width="4.0" stroke-linecap="butt" d="m561.03827 508.99857l-16.832703 9.477386l18.986572 3.5597534z" fill-rule="evenodd"></path><path fill="#000000" fill-opacity="0.0" d="m263.76953 344.21652c0 36.975647 51.165344 55.463104 102.33069 73.951294c51.165375 18.48819 102.33072 36.97711 102.33072 73.95422" fill-rule="nonzero"></path><path stroke="#f1c232" stroke-width="4.0" stroke-linejoin="round" stroke-linecap="butt" d="m263.76953 344.21652c0 36.975647 51.165344 55.463104 102.33069 73.951294c25.582672 9.24408 51.165375 18.488342 70.35239 30.043762c9.593475 5.77771 17.588074 12.133209 23.184296 19.355316c0.34976196 0.45135498 0.690155 0.9061279 1.0209961 1.3643799l0.27737427 0.3913269" fill-rule="evenodd"></path><path fill="#f1c232" stroke="#f1c232" stroke-width="4.0" stroke-linecap="butt" d="m454.65884 471.38608l11.94577 15.180878l0.6070862 -19.30783z" fill-rule="evenodd"></path><path fill="#000000" fill-opacity="0.0" d="m665.7748 344.21652c0 25.520294 -57.967346 49.46048 -100.5014 51.04059c-42.534058 1.5801392 -69.63489 -19.199738 -100.50137 -39.189575c-30.866486 -19.989838 -65.49863 -39.189575 -130.99722 -39.189575" fill-rule="nonzero"></path><path stroke="#6fa8dc" stroke-width="8.0" stroke-linejoin="round" stroke-linecap="butt" d="m665.7748 344.21652c0 25.520325 -57.967346 49.46048 -100.5014 51.04062c-42.534058 1.5801392 -69.63489 -19.199768 -100.50134 -39.189606c-15.433289 -9.994904 -31.807922 -19.792328 -52.511627 -27.090973c-5.175873 -1.824646 -10.6223755 -3.493164 -16.392334 -4.9695435c-2.8850098 -0.7381897 -5.8508606 -1.4283142 -8.904205 -2.0659485c-1.5267029 -0.31881714 -3.0752563 -0.6245117 -4.6464844 -0.9164734l-0.710968 -0.13012695" fill-rule="evenodd"></path><path fill="#6fa8dc" stroke="#6fa8dc" stroke-width="8.0" stroke-linecap="butt" d="m382.71213 307.72696l-37.283142 10.129639l35.071747 16.205414z" fill-rule="evenodd"></path><path fill="#000000" fill-opacity="0.0" d="m398.43094 519.4409c-114.830414 0 -204.07814 -50.637756 -229.66081 -101.27557c-25.582672 -50.637787 12.499695 -101.27557 24.99939 -101.27557" fill-rule="nonzero"></path><path stroke="#f1c232" stroke-width="4.0" stroke-linejoin="round" stroke-linecap="butt" d="m398.43094 519.4409c-114.830414 0 -204.07812 -50.637756 -229.66081 -101.27557c-12.791336 -25.318878 -9.666412 -50.637787 -1.781189 -69.62695c1.9712982 -4.747284 4.2401276 -9.098999 6.6321716 -12.956177c0.59799194 -0.9642639 1.2036896 -1.8976746 1.8143768 -2.7986145l0.15444946 -0.22531128" fill-rule="evenodd"></path><path fill="#f1c232" stroke="#f1c232" stroke-width="4.0" stroke-linecap="butt" d="m179.90329 337.56293l9.436768 -16.85553l-18.063492 6.8462524z" fill-rule="evenodd"></path><path fill="#000000" fill-opacity="0.0" d="m735.7748 316.8937c34.68524 0 69.41138 -27.007599 69.37048 -55.920654c-0.040893555 -28.913086 -34.848938 -59.731613 -69.67737 -55.92067c-34.82849 3.8109436 -69.67737 42.251358 -69.67737 84.50273" fill-rule="nonzero"></path><path stroke="#6fa8dc" stroke-width="8.0" stroke-linejoin="round" stroke-linecap="butt" d="m735.7748 316.8937c34.685303 0 69.41138 -27.007599 69.37048 -55.920685c-0.04095459 -28.91304 -34.848938 -59.731598 -69.67731 -55.920654c-17.414307 1.9054718 -34.83362 12.468323 -47.899414 27.836227c-1.6332397 1.9209747 -3.1984253 3.9170532 -4.687134 5.980667c-0.7442627 1.0318146 -1.4694824 2.0805206 -2.1744995 3.1451569c-0.1762085 0.26615906 -0.3511963 0.53330994 -0.5249634 0.8014679l-0.506897 0.791214" fill-rule="evenodd"></path><path fill="#6fa8dc" stroke="#6fa8dc" stroke-width="8.0" stroke-linecap="butt" d="m667.02606 239.78485l2.1474 38.575012l23.150574 -30.930496z" fill-rule="evenodd"></path><path fill="#d9d9d9" d="m398.43094 501.2259l0 0c0 -5.0300903 4.0776978 -9.107788 9.107788 -9.107788l121.78439 0c2.4155884 0 4.7321777 0.9595642 6.4401855 2.667633c1.7080688 1.7080383 2.6676025 4.0246277 2.6676025 6.440155l0 36.430115c0 5.0300903 -4.0776978 9.107788 -9.107788 9.107788l-121.78439 0l0 0c-5.0300903 0 -9.107788 -4.0776978 -9.107788 -9.107788z" fill-rule="nonzero"></path><path stroke="#999999" stroke-width="8.0" stroke-linejoin="round" stroke-linecap="butt" d="m398.43094 501.2259l0 0c0 -5.0300903 4.0776978 -9.107788 9.107788 -9.107788l121.78439 0c2.4155884 0 4.7321777 0.9595642 6.4401855 2.667633c1.7080688 1.7080383 2.6676025 4.0246277 2.6676025 6.440155l0 36.430115c0 5.0300903 -4.0776978 9.107788 -9.107788 9.107788l-121.78439 0l0 0c-5.0300903 0 -9.107788 -4.0776978 -9.107788 -9.107788z" fill-rule="nonzero"></path><path fill="#434343" d="m428.14893 527.98096l0 -16.625l11.140625 0l0 3.140625l-7.40625 0l0 3.46875l6.578125 0l0 3.15625l-6.578125 0l0 6.859375l-3.734375 0zm24.916595 0q-0.265625 -0.859375 -0.59375 -1.765625q-0.328125 -0.921875 -0.640625 -1.828125l-6.46875 0q-0.3125 0.90625 -0.640625 1.828125q-0.328125 0.90625 -0.59375 1.765625l-3.890625 0q0.9375 -2.6875 1.78125 -4.96875q0.84375 -2.28125 1.640625 -4.296875q0.8125 -2.015625 1.59375 -3.828125q0.78125 -1.8125 1.609375 -3.53125l3.578125 0q0.8125 1.71875 1.609375 3.53125q0.796875 1.8125 1.59375 3.828125q0.8125 2.015625 1.640625 4.296875q0.84375 2.28125 1.78125 4.96875l-4.0 0zm-4.5 -12.859375q-0.109375 0.359375 -0.359375 0.984375q-0.234375 0.625 -0.546875 1.4375q-0.3125 0.8125 -0.6875 1.796875q-0.375 0.984375 -0.75 2.0625l4.71875 0q-0.375 -1.078125 -0.734375 -2.0625q-0.359375 -0.984375 -0.6875 -1.796875q-0.328125 -0.8125 -0.5625 -1.4375q-0.234375 -0.625 -0.390625 -0.984375zm10.66333 -3.765625l3.734375 0l0 16.625l-3.734375 0l0 -16.625zm18.69336 13.40625l0 3.21875l-11.109375 0l0 -16.625l3.734375 0l0 13.40625l7.375 0zm2.402588 3.21875l0 -16.625l11.234375 0l0 3.140625l-7.5 0l0 3.265625l6.65625 0l0 3.0625l-6.65625 0l0 4.015625l8.046875 0l0 3.140625l-11.78125 0zm18.27832 -3.046875q0.265625 0.015625 0.609375 0.03125q0.359375 0.015625 0.84375 0.015625q2.796875 0 4.15625 -1.40625q1.359375 -1.421875 1.359375 -3.921875q0 -2.609375 -1.296875 -3.953125q-1.296875 -1.34375 -4.109375 -1.34375q-0.375 0 -0.78125 0.015625q-0.40625 0 -0.78125 0.046875l0 10.515625zm10.828125 -5.28125q0 2.15625 -0.671875 3.765625q-0.671875 1.609375 -1.90625 2.671875q-1.234375 1.046875 -3.015625 1.578125q-1.765625 0.53125 -3.984375 0.53125q-1.0 0 -2.34375 -0.09375q-1.34375 -0.078125 -2.640625 -0.34375l0 -16.203125q1.296875 -0.234375 2.703125 -0.3125q1.40625 -0.09375 2.40625 -0.09375q2.140625 0 3.875 0.484375q1.734375 0.484375 2.984375 1.515625q1.25 1.03125 1.921875 2.640625q0.671875 1.609375 0.671875 3.859375z" fill-rule="nonzero"></path><path fill="#d9d9d9" d="m595.7748 298.67865l0 0c0 -5.0300903 4.0776978 -9.107788 9.107788 -9.107788l121.784424 0c2.4155273 0 4.7321167 0.9595642 6.4401855 2.6676025c1.7080078 1.7080688 2.6676025 4.024658 2.6676025 6.4401855l0 36.430084c0 5.0300903 -4.0776978 9.107788 -9.107788 9.107788l-121.784424 0l0 0c-5.0300903 0 -9.107788 -4.0776978 -9.107788 -9.107788z" fill-rule="nonzero"></path><path stroke="#999999" stroke-width="8.0" stroke-linejoin="round" stroke-linecap="butt" d="m595.7748 298.67865l0 0c0 -5.0300903 4.0776978 -9.107788 9.107788 -9.107788l121.784424 0c2.4155273 0 4.7321167 0.9595642 6.4401855 2.6676025c1.7080078 1.7080688 2.6676025 4.024658 2.6676025 6.4401855l0 36.430084c0 5.0300903 -4.0776978 9.107788 -9.107788 9.107788l-121.784424 0l0 0c-5.0300903 0 -9.107788 -4.0776978 -9.107788 -9.107788z" fill-rule="nonzero"></path><path fill="#434343" d="m627.7038 308.60556q3.734375 0 5.71875 1.34375q2.0 1.328125 2.0 4.125q0 1.765625 -0.8125 2.859375q-0.796875 1.078125 -2.296875 1.703125q0.5 0.625 1.046875 1.4375q0.5625 0.796875 1.09375 1.671875q0.546875 0.875 1.046875 1.828125q0.5 0.953125 0.9375 1.859375l-4.203125 0q-0.453125 -0.8125 -0.921875 -1.65625q-0.46875 -0.84375 -0.96875 -1.625q-0.484375 -0.796875 -0.96875 -1.5q-0.484375 -0.71875 -0.953125 -1.296875l-1.859375 0l0 6.078125l-3.734375 0l0 -16.390625q1.21875 -0.234375 2.53125 -0.328125q1.3125 -0.109375 2.34375 -0.109375zm0.21875 3.203125q-0.421875 0 -0.75 0.03125q-0.3125 0.015625 -0.609375 0.03125l0 4.515625l1.0625 0q2.109375 0 3.015625 -0.53125q0.921875 -0.53125 0.921875 -1.796875q0 -1.21875 -0.921875 -1.734375q-0.921875 -0.515625 -2.71875 -0.515625zm10.914185 13.625l0 -16.625l11.234375 0l0 3.140625l-7.5 0l0 3.265625l6.65625 0l0 3.0625l-6.65625 0l0 4.015625l8.046875 0l0 3.140625l-11.78125 0zm19.075195 -2.859375q0.796875 0 1.3125 -0.125q0.515625 -0.140625 0.828125 -0.359375q0.3125 -0.234375 0.421875 -0.546875q0.125 -0.3125 0.125 -0.6875q0 -0.828125 -0.765625 -1.359375q-0.765625 -0.546875 -2.640625 -1.171875q-0.8125 -0.28125 -1.640625 -0.65625q-0.8125 -0.375 -1.46875 -0.9375q-0.640625 -0.5625 -1.046875 -1.359375q-0.40625 -0.8125 -0.40625 -1.96875q0 -1.140625 0.4375 -2.0625q0.4375 -0.9375 1.21875 -1.578125q0.796875 -0.640625 1.921875 -0.984375q1.125 -0.359375 2.546875 -0.359375q1.671875 0 2.890625 0.359375q1.234375 0.359375 2.03125 0.796875l-1.078125 2.953125q-0.703125 -0.359375 -1.5625 -0.640625q-0.84375 -0.28125 -2.046875 -0.28125q-1.34375 0 -1.9375 0.375q-0.578125 0.375 -0.578125 1.140625q0 0.453125 0.21875 0.765625q0.21875 0.3125 0.609375 0.5625q0.390625 0.25 0.90625 0.46875q0.515625 0.203125 1.140625 0.40625q1.296875 0.484375 2.25 0.953125q0.96875 0.46875 1.609375 1.09375q0.640625 0.625 0.953125 1.46875q0.3125 0.828125 0.3125 2.03125q0 2.328125 -1.640625 3.625q-1.625 1.28125 -4.921875 1.28125q-1.09375 0 -1.984375 -0.140625q-0.890625 -0.125 -1.578125 -0.3125q-0.6875 -0.203125 -1.1875 -0.421875q-0.484375 -0.21875 -0.8125 -0.40625l1.046875 -2.96875q0.75 0.40625 1.84375 0.734375q1.09375 0.3125 2.671875 0.3125zm15.936707 3.203125q-1.75 0 -3.03125 -0.484375q-1.265625 -0.5 -2.09375 -1.375q-0.828125 -0.890625 -1.21875 -2.09375q-0.390625 -1.21875 -0.390625 -2.671875l0 -10.34375l3.734375 0l0 10.03125q0 1.0 0.21875 1.71875q0.234375 0.703125 0.625 1.15625q0.40625 0.4375 0.96875 0.625q0.5625 0.1875 1.234375 0.1875q1.375 0 2.21875 -0.828125q0.859375 -0.84375 0.859375 -2.859375l0 -10.03125l3.734375 0l0 10.34375q0 1.453125 -0.40625 2.6875q-0.40625 1.21875 -1.25 2.09375q-0.828125 0.875 -2.125 1.359375q-1.296875 0.484375 -3.078125 0.484375zm21.577332 -3.5625l0 3.21875l-11.109375 0l0 -16.625l3.734375 0l0 13.40625l7.375 0zm14.730713 -13.40625l0 3.1875l-5.015625 0l0 13.4375l-3.734375 0l0 -13.4375l-5.015625 0l0 -3.1875l13.765625 0z" fill-rule="nonzero"></path><path fill="#d9d9d9" d="m193.76952 298.67865l0 0c0 -5.0300903 4.0776978 -9.107788 9.107803 -9.107788l121.78439 0c2.4155579 0 4.732147 0.9595642 6.4401855 2.6676025c1.7080688 1.7080688 2.667633 4.024658 2.667633 6.4401855l0 36.430084c0 5.0300903 -4.0776978 9.107788 -9.107819 9.107788l-121.78439 0l0 0c-5.0301056 0 -9.107803 -4.0776978 -9.107803 -9.107788z" fill-rule="nonzero"></path><path stroke="#999999" stroke-width="8.0" stroke-linejoin="round" stroke-linecap="butt" d="m193.76952 298.67865l0 0c0 -5.0300903 4.0776978 -9.107788 9.107803 -9.107788l121.78439 0c2.4155579 0 4.732147 0.9595642 6.4401855 2.6676025c1.7080688 1.7080688 2.667633 4.024658 2.667633 6.4401855l0 36.430084c0 5.0300903 -4.0776978 9.107788 -9.107819 9.107788l-121.78439 0l0 0c-5.0301056 0 -9.107803 -4.0776978 -9.107803 -9.107788z" fill-rule="nonzero"></path><path fill="#434343" d="m229.86252 308.60556q3.734375 0 5.71875 1.34375q2.0 1.328125 2.0 4.125q0 1.765625 -0.8125 2.859375q-0.796875 1.078125 -2.296875 1.703125q0.5 0.625 1.046875 1.4375q0.5625 0.796875 1.09375 1.671875q0.546875 0.875 1.046875 1.828125q0.5 0.953125 0.9375 1.859375l-4.203125 0q-0.453125 -0.8125 -0.921875 -1.65625q-0.46875 -0.84375 -0.96875 -1.625q-0.484375 -0.796875 -0.96875 -1.5q-0.484375 -0.71875 -0.953125 -1.296875l-1.859375 0l0 6.078125l-3.734375 0l0 -16.390625q1.21875 -0.234375 2.53125 -0.328125q1.3125 -0.109375 2.34375 -0.109375zm0.21875 3.203125q-0.421875 0 -0.75 0.03125q-0.3125 0.015625 -0.609375 0.03125l0 4.515625l1.0625 0q2.109375 0 3.015625 -0.53125q0.921875 -0.53125 0.921875 -1.796875q0 -1.21875 -0.921875 -1.734375q-0.921875 -0.515625 -2.71875 -0.515625zm10.9142 13.625l0 -16.625l11.234375 0l0 3.140625l-7.5 0l0 3.265625l6.65625 0l0 3.0625l-6.65625 0l0 4.015625l8.046875 0l0 3.140625l-11.78125 0zm25.684586 0q-0.265625 -0.859375 -0.59375 -1.765625q-0.328125 -0.921875 -0.640625 -1.828125l-6.46875 0q-0.3125 0.90625 -0.640625 1.828125q-0.328125 0.90625 -0.59375 1.765625l-3.890625 0q0.9375 -2.6875 1.78125 -4.96875q0.84375 -2.28125 1.640625 -4.296875q0.8125 -2.015625 1.59375 -3.828125q0.78125 -1.8125 1.609375 -3.53125l3.578125 0q0.8125 1.71875 1.609375 3.53125q0.796875 1.8125 1.59375 3.828125q0.8125 2.015625 1.640625 4.296875q0.84375 2.28125 1.78125 4.96875l-4.0 0zm-4.5 -12.859375q-0.109375 0.359375 -0.359375 0.984375q-0.234375 0.625 -0.546875 1.4375q-0.3125 0.8125 -0.6875 1.796875q-0.375 0.984375 -0.75 2.0625l4.71875 0q-0.375 -1.078125 -0.734375 -2.0625q-0.359375 -0.984375 -0.6875 -1.796875q-0.328125 -0.8125 -0.5625 -1.4375q-0.234375 -0.625 -0.390625 -0.984375zm14.397705 9.8125q0.265625 0.015625 0.609375 0.03125q0.359375 0.015625 0.84375 0.015625q2.796875 0 4.15625 -1.40625q1.359375 -1.421875 1.359375 -3.921875q0 -2.609375 -1.296875 -3.953125q-1.296875 -1.34375 -4.109375 -1.34375q-0.375 0 -0.78125 0.015625q-0.40625 0 -0.78125 0.046875l0 10.515625zm10.828125 -5.28125q0 2.15625 -0.671875 3.765625q-0.671875 1.609375 -1.90625 2.671875q-1.234375 1.046875 -3.015625 1.578125q-1.765625 0.53125 -3.984375 0.53125q-1.0 0 -2.34375 -0.09375q-1.34375 -0.078125 -2.640625 -0.34375l0 -16.203125q1.296875 -0.234375 2.703125 -0.3125q1.40625 -0.09375 2.40625 -0.09375q2.140625 0 3.875 0.484375q1.734375 0.484375 2.984375 1.515625q1.25 1.03125 1.921875 2.640625q0.671875 1.609375 0.671875 3.859375zm9.219177 -1.46875q1.015625 -1.703125 1.921875 -3.40625q0.90625 -1.703125 1.671875 -3.421875l4.140625 0q-1.375 2.6875 -2.84375 5.203125q-1.453125 2.515625 -3.09375 5.0625l0 6.359375l-3.734375 0l0 -6.3125q-1.640625 -2.546875 -3.125 -5.078125q-1.46875 -2.546875 -2.828125 -5.234375l4.34375 0q0.765625 1.71875 1.65625 3.421875q0.890625 1.703125 1.890625 3.40625z" fill-rule="nonzero"></path><path fill="#000000" fill-opacity="0.0" d="m660.7454 161.83464l164.5669 0l0 42.897644l-164.5669 0z" fill-rule="nonzero"></path><path fill="#3d85c6" d="m695.55316 179.16089q0.609375 -0.15625 1.609375 -0.328125q1.015625 -0.171875 2.328125 -0.171875q1.171875 0 1.953125 0.34375q0.78125 0.328125 1.25 0.921875q0.46875 0.59375 0.65625 1.4375q0.1875 0.828125 0.1875 1.84375l0 5.546875l-1.765625 0l0 -5.171875q0 -0.90625 -0.125 -1.546875q-0.125 -0.65625 -0.40625 -1.046875q-0.28125 -0.40625 -0.765625 -0.578125q-0.46875 -0.1875 -1.171875 -0.1875q-0.28125 0 -0.59375 0.015625q-0.296875 0.015625 -0.578125 0.046875q-0.28125 0.03125 -0.5 0.078125q-0.21875 0.03125 -0.3125 0.046875l0 8.34375l-1.765625 0l0 -9.59375zm10.161804 4.671875q0 -1.3125 0.375 -2.28125q0.390625 -0.984375 1.015625 -1.625q0.625 -0.65625 1.4375 -0.96875q0.8125 -0.328125 1.671875 -0.328125q2.0 0 3.0625 1.25q1.0625 1.234375 1.0625 3.78125q0 0.109375 0 0.296875q0 0.1875 -0.015625 0.328125l-6.765625 0q0.109375 1.546875 0.890625 2.34375q0.78125 0.796875 2.4375 0.796875q0.921875 0 1.5625 -0.15625q0.640625 -0.171875 0.953125 -0.328125l0.25 1.484375q-0.3125 0.171875 -1.125 0.359375q-0.8125 0.203125 -1.828125 0.203125q-1.296875 0 -2.234375 -0.390625q-0.9375 -0.390625 -1.546875 -1.078125q-0.609375 -0.6875 -0.90625 -1.625q-0.296875 -0.9375 -0.296875 -2.0625zm6.78125 -0.96875q0.015625 -1.203125 -0.609375 -1.96875q-0.609375 -0.765625 -1.6875 -0.765625q-0.609375 0 -1.078125 0.234375q-0.46875 0.234375 -0.796875 0.625q-0.3125 0.375 -0.5 0.875q-0.171875 0.484375 -0.234375 1.0l4.90625 0zm10.100769 5.890625q-0.203125 -0.421875 -0.515625 -0.921875q-0.296875 -0.515625 -0.65625 -1.0625q-0.359375 -0.546875 -0.75 -1.078125q-0.375 -0.53125 -0.734375 -1.0q-0.359375 0.46875 -0.75 1.015625q-0.375 0.53125 -0.734375 1.078125q-0.34375 0.546875 -0.640625 1.0625q-0.296875 0.5 -0.515625 0.90625l-1.828125 0q0.671875 -1.296875 1.59375 -2.625q0.921875 -1.34375 1.828125 -2.5625l-3.265625 -4.6875l2.0 0l2.359375 3.453125l2.375 -3.453125l1.875 0l-3.1875 4.578125q0.90625 1.234375 1.859375 2.609375q0.96875 1.375 1.625 2.6875l-1.9375 0zm5.283325 -9.875l3.75 0l0 1.484375l-3.75 0l0 4.546875q0 0.75 0.109375 1.234375q0.125 0.484375 0.34375 0.765625q0.234375 0.265625 0.578125 0.390625q0.34375 0.109375 0.796875 0.109375q0.796875 0 1.28125 -0.171875q0.484375 -0.1875 0.671875 -0.265625l0.34375 1.453125q-0.265625 0.140625 -0.9375 0.328125q-0.65625 0.203125 -1.515625 0.203125q-1.0 0 -1.65625 -0.25q-0.65625 -0.25 -1.0625 -0.765625q-0.390625 -0.515625 -0.5625 -1.265625q-0.15625 -0.75 -0.15625 -1.734375l0 -8.828125l1.765625 -0.296875l0 3.0625zm13.809387 -0.21875q0.21875 0 0.515625 0.03125q0.296875 0.03125 0.578125 0.078125q0.296875 0.046875 0.53125 0.09375q0.234375 0.046875 0.34375 0.09375l-0.296875 1.53125q-0.21875 -0.078125 -0.703125 -0.171875q-0.484375 -0.109375 -1.234375 -0.109375q-0.5 0 -0.984375 0.109375q-0.484375 0.09375 -0.640625 0.140625l0 8.296875l-1.765625 0l0 -9.46875q0.625 -0.21875 1.5625 -0.421875q0.9375 -0.203125 2.09375 -0.203125zm2.99823 5.171875q0 -1.3125 0.375 -2.28125q0.390625 -0.984375 1.015625 -1.625q0.625 -0.65625 1.4375 -0.96875q0.8125 -0.328125 1.671875 -0.328125q2.0 0 3.0625 1.25q1.0625 1.234375 1.0625 3.78125q0 0.109375 0 0.296875q0 0.1875 -0.015625 0.328125l-6.765625 0q0.109375 1.546875 0.890625 2.34375q0.78125 0.796875 2.4375 0.796875q0.921875 0 1.5625 -0.15625q0.640625 -0.171875 0.953125 -0.328125l0.25 1.484375q-0.3125 0.171875 -1.125 0.359375q-0.8125 0.203125 -1.828125 0.203125q-1.296875 0 -2.234375 -0.390625q-0.9375 -0.390625 -1.546875 -1.078125q-0.609375 -0.6875 -0.90625 -1.625q-0.296875 -0.9375 -0.296875 -2.0625zm6.78125 -0.96875q0.015625 -1.203125 -0.609375 -1.96875q-0.609375 -0.765625 -1.6875 -0.765625q-0.609375 0 -1.078125 0.234375q-0.46875 0.234375 -0.796875 0.625q-0.3125 0.375 -0.5 0.875q-0.171875 0.484375 -0.234375 1.0l4.90625 0zm8.491333 6.125q-1.203125 0 -2.109375 -0.375q-0.890625 -0.390625 -1.515625 -1.078125q-0.609375 -0.6875 -0.921875 -1.625q-0.296875 -0.9375 -0.296875 -2.078125q0 -1.140625 0.328125 -2.09375q0.34375 -0.953125 0.9375 -1.640625q0.609375 -0.6875 1.484375 -1.078125q0.890625 -0.390625 1.984375 -0.390625q0.65625 0 1.3125 0.109375q0.671875 0.109375 1.28125 0.359375l-0.390625 1.5q-0.40625 -0.1875 -0.9375 -0.296875q-0.515625 -0.109375 -1.09375 -0.109375q-1.484375 0 -2.28125 0.9375q-0.78125 0.921875 -0.78125 2.703125q0 0.796875 0.171875 1.46875q0.1875 0.65625 0.578125 1.140625q0.390625 0.46875 1.0 0.734375q0.609375 0.25 1.484375 0.25q0.703125 0 1.265625 -0.125q0.578125 -0.140625 0.890625 -0.296875l0.25 1.484375q-0.15625 0.09375 -0.4375 0.1875q-0.28125 0.078125 -0.640625 0.140625q-0.359375 0.078125 -0.78125 0.125q-0.40625 0.046875 -0.78125 0.046875zm13.097046 -5.171875q0 1.171875 -0.34375 2.125q-0.328125 0.953125 -0.953125 1.640625q-0.609375 0.671875 -1.46875 1.046875q-0.859375 0.375 -1.859375 0.375q-1.015625 0 -1.875 -0.375q-0.84375 -0.375 -1.46875 -1.046875q-0.609375 -0.6875 -0.953125 -1.640625q-0.34375 -0.953125 -0.34375 -2.125q0 -1.15625 0.34375 -2.109375q0.34375 -0.96875 0.953125 -1.65625q0.625 -0.6875 1.46875 -1.046875q0.859375 -0.375 1.875 -0.375q1.0 0 1.859375 0.375q0.859375 0.359375 1.46875 1.046875q0.625 0.6875 0.953125 1.65625q0.34375 0.953125 0.34375 2.109375zm-1.84375 0q0 -1.671875 -0.75 -2.640625q-0.75 -0.984375 -2.03125 -0.984375q-1.296875 0 -2.046875 0.984375q-0.75 0.96875 -0.75 2.640625q0 1.671875 0.75 2.65625q0.75 0.96875 2.046875 0.96875q1.28125 0 2.03125 -0.96875q0.75 -0.984375 0.75 -2.65625zm7.788391 -5.15625q0.21875 0 0.515625 0.03125q0.296875 0.03125 0.578125 0.078125q0.296875 0.046875 0.53125 0.09375q0.234375 0.046875 0.34375 0.09375l-0.296875 1.53125q-0.21875 -0.078125 -0.703125 -0.171875q-0.484375 -0.109375 -1.234375 -0.109375q-0.5 0 -0.984375 0.109375q-0.484375 0.09375 -0.640625 0.140625l0 8.296875l-1.765625 0l0 -9.46875q0.625 -0.21875 1.5625 -0.421875q0.9375 -0.203125 2.09375 -0.203125zm9.93573 2.296875q-0.328125 -0.265625 -0.9375 -0.5q-0.609375 -0.25 -1.328125 -0.25q-0.75 0 -1.296875 0.28125q-0.546875 0.265625 -0.890625 0.75q-0.34375 0.484375 -0.5 1.15625q-0.140625 0.65625 -0.140625 1.421875q0 1.71875 0.84375 2.671875q0.859375 0.9375 2.296875 0.9375q0.71875 0 1.203125 -0.0625q0.484375 -0.078125 0.75 -0.140625l0 -6.265625zm0 -6.640625l1.765625 -0.3125l0 14.46875q-0.609375 0.171875 -1.5625 0.34375q-0.953125 0.171875 -2.1875 0.171875q-1.140625 0 -2.046875 -0.359375q-0.90625 -0.375 -1.5625 -1.03125q-0.640625 -0.671875 -1.0 -1.625q-0.34375 -0.96875 -0.34375 -2.15625q0 -1.140625 0.296875 -2.09375q0.296875 -0.953125 0.859375 -1.625q0.578125 -0.6875 1.390625 -1.0625q0.828125 -0.390625 1.90625 -0.390625q0.84375 0 1.5 0.234375q0.65625 0.21875 0.984375 0.4375l0 -5.0z" fill-rule="nonzero"></path><path fill="#000000" fill-opacity="0.0" d="m478.18896 396.71915l164.56696 0l0 42.897644l-164.56696 0z" fill-rule="nonzero"></path><path fill="#3d85c6" d="m500.05276 418.7173q0 -1.3125 0.375 -2.28125q0.390625 -0.984375 1.015625 -1.625q0.625 -0.65625 1.4375 -0.96875q0.8125 -0.328125 1.671875 -0.328125q2.0 0 3.0625 1.25q1.0625 1.234375 1.0625 3.78125q0 0.109375 0 0.296875q0 0.1875 -0.015625 0.328125l-6.765625 0q0.109375 1.546875 0.890625 2.34375q0.78125 0.796875 2.4375 0.796875q0.921875 0 1.5625 -0.15625q0.640625 -0.171875 0.953125 -0.328125l0.25 1.484375q-0.3125 0.171875 -1.125 0.359375q-0.8125 0.203125 -1.828125 0.203125q-1.296875 0 -2.234375 -0.390625q-0.9375 -0.390625 -1.546875 -1.078125q-0.609375 -0.6875 -0.90625 -1.625q-0.296875 -0.9375 -0.296875 -2.0625zm6.78125 -0.96875q0.015625 -1.203125 -0.609375 -1.96875q-0.609375 -0.765625 -1.6875 -0.765625q-0.609375 0 -1.078125 0.234375q-0.46875 0.234375 -0.796875 0.625q-0.3125 0.375 -0.5 0.875q-0.171875 0.484375 -0.234375 1.0l4.90625 0zm4.1944885 -3.703125q0.609375 -0.15625 1.609375 -0.328125q1.015625 -0.171875 2.328125 -0.171875q1.171875 0 1.953125 0.34375q0.78125 0.328125 1.25 0.921875q0.46875 0.59375 0.65625 1.4375q0.1875 0.828125 0.1875 1.84375l0 5.546875l-1.765625 0l0 -5.171875q0 -0.90625 -0.125 -1.546875q-0.125 -0.65625 -0.40625 -1.046875q-0.28125 -0.40625 -0.765625 -0.578125q-0.46875 -0.1875 -1.171875 -0.1875q-0.28125 0 -0.59375 0.015625q-0.296875 0.015625 -0.578125 0.046875q-0.28125 0.03125 -0.5 0.078125q-0.21875 0.03125 -0.3125 0.046875l0 8.34375l-1.765625 0l0 -9.59375zm17.099304 1.796875q-0.328125 -0.265625 -0.9375 -0.5q-0.609375 -0.25 -1.328125 -0.25q-0.75 0 -1.296875 0.28125q-0.546875 0.265625 -0.890625 0.75q-0.34375 0.484375 -0.5 1.15625q-0.140625 0.65625 -0.140625 1.421875q0 1.71875 0.84375 2.671875q0.859375 0.9375 2.296875 0.9375q0.71875 0 1.203125 -0.0625q0.484375 -0.078125 0.75 -0.140625l0 -6.265625zm0 -6.640625l1.765625 -0.3125l0 14.46875q-0.609375 0.171875 -1.5625 0.34375q-0.953125 0.171875 -2.1875 0.171875q-1.140625 0 -2.046875 -0.359375q-0.90625 -0.375 -1.5625 -1.03125q-0.640625 -0.671875 -1.0 -1.625q-0.34375 -0.96875 -0.34375 -2.15625q0 -1.140625 0.296875 -2.09375q0.296875 -0.953125 0.859375 -1.625q0.578125 -0.6875 1.390625 -1.0625q0.828125 -0.390625 1.90625 -0.390625q0.84375 0 1.5 0.234375q0.65625 0.21875 0.984375 0.4375l0 -5.0zm17.626282 9.5q0 1.171875 -0.34375 2.125q-0.328125 0.953125 -0.953125 1.640625q-0.609375 0.671875 -1.46875 1.046875q-0.859375 0.375 -1.859375 0.375q-1.015625 0 -1.875 -0.375q-0.84375 -0.375 -1.46875 -1.046875q-0.609375 -0.6875 -0.953125 -1.640625q-0.34375 -0.953125 -0.34375 -2.125q0 -1.15625 0.34375 -2.109375q0.34375 -0.96875 0.953125 -1.65625q0.625 -0.6875 1.46875 -1.046875q0.859375 -0.375 1.875 -0.375q1.0 0 1.859375 0.375q0.859375 0.359375 1.46875 1.046875q0.625 0.6875 0.953125 1.65625q0.34375 0.953125 0.34375 2.109375zm-1.84375 0q0 -1.671875 -0.75 -2.640625q-0.75 -0.984375 -2.03125 -0.984375q-1.296875 0 -2.046875 0.984375q-0.75 0.96875 -0.75 2.640625q0 1.671875 0.75 2.65625q0.75 0.96875 2.046875 0.96875q1.28125 0 2.03125 -0.96875q0.75 -0.984375 0.75 -2.65625zm7.991577 -9.8125q0.78125 0 1.34375 0.125q0.5625 0.109375 0.78125 0.203125l-0.3125 1.515625q-0.234375 -0.109375 -0.65625 -0.203125q-0.40625 -0.109375 -1.015625 -0.109375q-1.234375 0 -1.734375 0.671875q-0.5 0.671875 -0.5 1.8125l0 0.859375l3.8125 0l0 1.484375l-3.8125 0l0 8.390625l-1.765625 0l0 -10.765625q0 -1.90625 0.921875 -2.9375q0.9375 -1.046875 2.9375 -1.046875zm11.307739 4.65625q0.21875 0 0.515625 0.03125q0.296875 0.03125 0.578125 0.078125q0.296875 0.046875 0.53125 0.09375q0.234375 0.046875 0.34375 0.09375l-0.296875 1.53125q-0.21875 -0.078125 -0.703125 -0.171875q-0.484375 -0.109375 -1.234375 -0.109375q-0.5 0 -0.984375 0.109375q-0.484375 0.09375 -0.640625 0.140625l0 8.296875l-1.765625 0l0 -9.46875q0.625 -0.21875 1.5625 -0.421875q0.9375 -0.203125 2.09375 -0.203125zm2.99823 5.171875q0 -1.3125 0.375 -2.28125q0.390625 -0.984375 1.015625 -1.625q0.625 -0.65625 1.4375 -0.96875q0.8125 -0.328125 1.671875 -0.328125q2.0 0 3.0625 1.25q1.0625 1.234375 1.0625 3.78125q0 0.109375 0 0.296875q0 0.1875 -0.015625 0.328125l-6.765625 0q0.109375 1.546875 0.890625 2.34375q0.78125 0.796875 2.4375 0.796875q0.921875 0 1.5625 -0.15625q0.640625 -0.171875 0.953125 -0.328125l0.25 1.484375q-0.3125 0.171875 -1.125 0.359375q-0.8125 0.203125 -1.828125 0.203125q-1.296875 0 -2.234375 -0.390625q-0.9375 -0.390625 -1.546875 -1.078125q-0.609375 -0.6875 -0.90625 -1.625q-0.296875 -0.9375 -0.296875 -2.0625zm6.78125 -0.96875q0.015625 -1.203125 -0.609375 -1.96875q-0.609375 -0.765625 -1.6875 -0.765625q-0.609375 0 -1.078125 0.234375q-0.46875 0.234375 -0.796875 0.625q-0.3125 0.375 -0.5 0.875q-0.171875 0.484375 -0.234375 1.0l4.90625 0zm8.491333 6.125q-1.203125 0 -2.109375 -0.375q-0.890625 -0.390625 -1.515625 -1.078125q-0.609375 -0.6875 -0.921875 -1.625q-0.296875 -0.9375 -0.296875 -2.078125q0 -1.140625 0.328125 -2.09375q0.34375 -0.953125 0.9375 -1.640625q0.609375 -0.6875 1.484375 -1.078125q0.890625 -0.390625 1.984375 -0.390625q0.65625 0 1.3125 0.109375q0.671875 0.109375 1.28125 0.359375l-0.390625 1.5q-0.40625 -0.1875 -0.9375 -0.296875q-0.515625 -0.109375 -1.09375 -0.109375q-1.484375 0 -2.28125 0.9375q-0.78125 0.921875 -0.78125 2.703125q0 0.796875 0.171875 1.46875q0.1875 0.65625 0.578125 1.140625q0.390625 0.46875 1.0 0.734375q0.609375 0.25 1.484375 0.25q0.703125 0 1.265625 -0.125q0.578125 -0.140625 0.890625 -0.296875l0.25 1.484375q-0.15625 0.09375 -0.4375 0.1875q-0.28125 0.078125 -0.640625 0.140625q-0.359375 0.078125 -0.78125 0.125q-0.40625 0.046875 -0.78125 0.046875zm13.097046 -5.171875q0 1.171875 -0.34375 2.125q-0.328125 0.953125 -0.953125 1.640625q-0.609375 0.671875 -1.46875 1.046875q-0.859375 0.375 -1.859375 0.375q-1.015625 0 -1.875 -0.375q-0.84375 -0.375 -1.46875 -1.046875q-0.609375 -0.6875 -0.953125 -1.640625q-0.34375 -0.953125 -0.34375 -2.125q0 -1.15625 0.34375 -2.109375q0.34375 -0.96875 0.953125 -1.65625q0.625 -0.6875 1.46875 -1.046875q0.859375 -0.375 1.875 -0.375q1.0 0 1.859375 0.375q0.859375 0.359375 1.46875 1.046875q0.625 0.6875 0.953125 1.65625q0.34375 0.953125 0.34375 2.109375zm-1.84375 0q0 -1.671875 -0.75 -2.640625q-0.75 -0.984375 -2.03125 -0.984375q-1.296875 0 -2.046875 0.984375q-0.75 0.96875 -0.75 2.640625q0 1.671875 0.75 2.65625q0.75 0.96875 2.046875 0.96875q1.28125 0 2.03125 -0.96875q0.75 -0.984375 0.75 -2.65625zm7.788391 -5.15625q0.21875 0 0.515625 0.03125q0.296875 0.03125 0.578125 0.078125q0.296875 0.046875 0.53125 0.09375q0.234375 0.046875 0.34375 0.09375l-0.296875 1.53125q-0.21875 -0.078125 -0.703125 -0.171875q-0.484375 -0.109375 -1.234375 -0.109375q-0.5 0 -0.984375 0.109375q-0.484375 0.09375 -0.640625 0.140625l0 8.296875l-1.765625 0l0 -9.46875q0.625 -0.21875 1.5625 -0.421875q0.9375 -0.203125 2.09375 -0.203125zm9.93573 2.296875q-0.328125 -0.265625 -0.9375 -0.5q-0.609375 -0.25 -1.328125 -0.25q-0.75 0 -1.296875 0.28125q-0.546875 0.265625 -0.890625 0.75q-0.34375 0.484375 -0.5 1.15625q-0.140625 0.65625 -0.140625 1.421875q0 1.71875 0.84375 2.671875q0.859375 0.9375 2.296875 0.9375q0.71875 0 1.203125 -0.0625q0.484375 -0.078125 0.75 -0.140625l0 -6.265625zm0 -6.640625l1.765625 -0.3125l0 14.46875q-0.609375 0.171875 -1.5625 0.34375q-0.953125 0.171875 -2.1875 0.171875q-1.140625 0 -2.046875 -0.359375q-0.90625 -0.375 -1.5625 -1.03125q-0.640625 -0.671875 -1.0 -1.625q-0.34375 -0.96875 -0.34375 -2.15625q0 -1.140625 0.296875 -2.09375q0.296875 -0.953125 0.859375 -1.625q0.578125 -0.6875 1.390625 -1.0625q0.828125 -0.390625 1.90625 -0.390625q0.84375 0 1.5 0.234375q0.65625 0.21875 0.984375 0.4375l0 -5.0zm6.8947754 13.171875q1.09375 0 1.609375 -0.28125q0.53125 -0.296875 0.53125 -0.921875q0 -0.640625 -0.515625 -1.015625q-0.515625 -0.390625 -1.6875 -0.859375q-0.578125 -0.234375 -1.109375 -0.46875q-0.515625 -0.234375 -0.890625 -0.5625q-0.375 -0.328125 -0.609375 -0.78125q-0.234375 -0.453125 -0.234375 -1.125q0 -1.3125 0.96875 -2.078125q0.96875 -0.765625 2.640625 -0.765625q0.421875 0 0.84375 0.046875q0.421875 0.046875 0.78125 0.109375q0.359375 0.0625 0.625 0.140625q0.28125 0.078125 0.4375 0.140625l-0.328125 1.515625q-0.28125 -0.15625 -0.890625 -0.3125q-0.609375 -0.15625 -1.46875 -0.15625q-0.734375 0 -1.296875 0.296875q-0.546875 0.28125 -0.546875 0.921875q0 0.3125 0.125 0.5625q0.125 0.25 0.375 0.453125q0.265625 0.1875 0.640625 0.359375q0.390625 0.171875 0.921875 0.359375q0.703125 0.265625 1.25 0.53125q0.546875 0.25 0.9375 0.59375q0.390625 0.34375 0.59375 0.828125q0.21875 0.484375 0.21875 1.1875q0 1.375 -1.015625 2.078125q-1.015625 0.703125 -2.90625 0.703125q-1.296875 0 -2.046875 -0.21875q-0.734375 -0.21875 -1.0 -0.34375l0.3125 -1.515625q0.3125 0.109375 0.96875 0.34375q0.671875 0.234375 1.765625 0.234375z" fill-rule="nonzero"></path><path fill="#000000" fill-opacity="0.0" d="m583.4908 429.05774l164.56696 0l0 42.897644l-164.56696 0z" fill-rule="nonzero"></path><path fill="#bf9000" d="m657.77277 441.22775q0.78125 0 1.34375 0.125q0.5625 0.109375 0.78125 0.203125l-0.3125 1.515625q-0.234375 -0.109375 -0.65625 -0.203125q-0.40625 -0.109375 -1.015625 -0.109375q-1.234375 0 -1.734375 0.671875q-0.5 0.671875 -0.5 1.8125l0 0.859375l3.8125 0l0 1.484375l-3.8125 0l0 8.390625l-1.765625 0l0 -10.765625q0 -1.90625 0.921875 -2.9375q0.9375 -1.046875 2.9375 -1.046875zm6.685669 13.484375q0.625 0 1.109375 -0.03125q0.484375 -0.03125 0.8125 -0.109375l0 -2.9375q-0.1875 -0.109375 -0.625 -0.171875q-0.421875 -0.0625 -1.03125 -0.0625q-0.390625 0 -0.84375 0.0625q-0.4375 0.046875 -0.8125 0.234375q-0.375 0.171875 -0.625 0.484375q-0.234375 0.3125 -0.234375 0.828125q0 0.953125 0.59375 1.328125q0.609375 0.375 1.65625 0.375zm-0.140625 -8.859375q1.0625 0 1.78125 0.28125q0.734375 0.265625 1.171875 0.78125q0.453125 0.5 0.640625 1.1875q0.203125 0.6875 0.203125 1.53125l0 6.171875q-0.234375 0.03125 -0.640625 0.109375q-0.40625 0.0625 -0.921875 0.109375q-0.515625 0.0625 -1.109375 0.109375q-0.59375 0.046875 -1.1875 0.046875q-0.84375 0 -1.546875 -0.171875q-0.703125 -0.171875 -1.21875 -0.53125q-0.5 -0.375 -0.796875 -0.984375q-0.28125 -0.609375 -0.28125 -1.453125q0 -0.828125 0.328125 -1.40625q0.34375 -0.59375 0.90625 -0.953125q0.578125 -0.359375 1.328125 -0.53125q0.765625 -0.171875 1.609375 -0.171875q0.265625 0 0.546875 0.03125q0.28125 0.015625 0.53125 0.0625q0.265625 0.046875 0.453125 0.09375q0.1875 0.03125 0.265625 0.0625l0 -0.5q0 -0.4375 -0.09375 -0.859375q-0.09375 -0.4375 -0.34375 -0.765625q-0.25 -0.328125 -0.671875 -0.53125q-0.421875 -0.203125 -1.109375 -0.203125q-0.875 0 -1.53125 0.125q-0.65625 0.125 -0.984375 0.25l-0.203125 -1.453125q0.34375 -0.15625 1.140625 -0.296875q0.796875 -0.140625 1.734375 -0.140625zm8.301086 10.125l-1.765625 0l0 -9.875l1.765625 0l0 9.875zm-0.890625 -11.671875q-0.46875 0 -0.8125 -0.3125q-0.328125 -0.3125 -0.328125 -0.84375q0 -0.53125 0.328125 -0.84375q0.34375 -0.3125 0.8125 -0.3125q0.484375 0 0.8125 0.3125q0.328125 0.3125 0.328125 0.84375q0 0.53125 -0.328125 0.84375q-0.328125 0.3125 -0.8125 0.3125zm6.8137817 11.859375q-1.640625 -0.03125 -2.328125 -0.6875q-0.671875 -0.671875 -0.671875 -2.078125l0 -11.859375l1.765625 -0.3125l0 11.875q0 0.4375 0.078125 0.734375q0.078125 0.28125 0.25 0.453125q0.171875 0.171875 0.453125 0.265625q0.28125 0.078125 0.703125 0.125l-0.25 1.484375z" fill-rule="nonzero"></path><path fill="#000000" fill-opacity="0.0" d="m251.22835 410.37534l164.56691 0l0 42.897644l-164.56691 0z" fill-rule="nonzero"></path><path fill="#bf9000" d="m325.51028 422.54532q0.78125 0 1.34375 0.125q0.5625 0.109375 0.78125 0.203125l-0.3125 1.515625q-0.234375 -0.109375 -0.65625 -0.203125q-0.40625 -0.109375 -1.015625 -0.109375q-1.234375 0 -1.734375 0.671875q-0.5 0.671875 -0.5 1.8125l0 0.859375l3.8125 0l0 1.484375l-3.8125 0l0 8.390625l-1.765625 0l0 -10.765625q0 -1.90625 0.921875 -2.9375q0.9375 -1.046875 2.9375 -1.046875zm6.685669 13.484375q0.625 0 1.109375 -0.03125q0.484375 -0.03125 0.8125 -0.109375l0 -2.9375q-0.1875 -0.109375 -0.625 -0.171875q-0.421875 -0.0625 -1.03125 -0.0625q-0.390625 0 -0.84375 0.0625q-0.4375 0.046875 -0.8125 0.234375q-0.375 0.171875 -0.625 0.484375q-0.234375 0.3125 -0.234375 0.828125q0 0.953125 0.59375 1.328125q0.609375 0.375 1.65625 0.375zm-0.140625 -8.859375q1.0625 0 1.78125 0.28125q0.734375 0.265625 1.171875 0.78125q0.453125 0.5 0.640625 1.1875q0.203125 0.6875 0.203125 1.53125l0 6.171875q-0.234375 0.03125 -0.640625 0.109375q-0.40625 0.0625 -0.921875 0.109375q-0.515625 0.0625 -1.109375 0.109375q-0.59375 0.046875 -1.1875 0.046875q-0.84375 0 -1.546875 -0.171875q-0.703125 -0.171875 -1.21875 -0.53125q-0.5 -0.375 -0.796875 -0.984375q-0.28125 -0.609375 -0.28125 -1.453125q0 -0.828125 0.328125 -1.40625q0.34375 -0.59375 0.90625 -0.953125q0.578125 -0.359375 1.328125 -0.53125q0.765625 -0.171875 1.609375 -0.171875q0.265625 0 0.546875 0.03125q0.28125 0.015625 0.53125 0.0625q0.265625 0.046875 0.453125 0.09375q0.1875 0.03125 0.265625 0.0625l0 -0.5q0 -0.4375 -0.09375 -0.859375q-0.09375 -0.4375 -0.34375 -0.765625q-0.25 -0.328125 -0.671875 -0.53125q-0.421875 -0.203125 -1.109375 -0.203125q-0.875 0 -1.53125 0.125q-0.65625 0.125 -0.984375 0.25l-0.203125 -1.453125q0.34375 -0.15625 1.140625 -0.296875q0.796875 -0.140625 1.734375 -0.140625zm8.301086 10.125l-1.765625 0l0 -9.875l1.765625 0l0 9.875zm-0.890625 -11.671875q-0.46875 0 -0.8125 -0.3125q-0.328125 -0.3125 -0.328125 -0.84375q0 -0.53125 0.328125 -0.84375q0.34375 -0.3125 0.8125 -0.3125q0.484375 0 0.8125 0.3125q0.328125 0.3125 0.328125 0.84375q0 0.53125 -0.328125 0.84375q-0.328125 0.3125 -0.8125 0.3125zm6.8137817 11.859375q-1.640625 -0.03125 -2.328125 -0.6875q-0.671875 -0.671875 -0.671875 -2.078125l0 -11.859375l1.765625 -0.3125l0 11.875q0 0.4375 0.078125 0.734375q0.078125 0.28125 0.25 0.453125q0.171875 0.171875 0.453125 0.265625q0.28125 0.078125 0.703125 0.125l-0.25 1.484375z" fill-rule="nonzero"></path><path fill="#000000" fill-opacity="0.0" d="m63.102364 464.48294l182.11023 0l0 63.46457l-182.11023 0z" fill-rule="nonzero"></path><path fill="#bf9000" d="m102.97346 490.1373q0.625 0 1.109375 -0.03125q0.484375 -0.03125 0.8125 -0.109375l0 -2.9375q-0.1875 -0.109375 -0.625 -0.171875q-0.421875 -0.0625 -1.03125 -0.0625q-0.390625 0 -0.84375 0.0625q-0.4375 0.046875 -0.8125 0.234375q-0.375 0.171875 -0.625 0.484375q-0.234375 0.3125 -0.234375 0.828125q0 0.953125 0.59375 1.328125q0.609375 0.375 1.65625 0.375zm-0.140625 -8.859375q1.0625 0 1.78125 0.28125q0.734375 0.265625 1.171875 0.78125q0.453125 0.5 0.640625 1.1875q0.203125 0.6875 0.203125 1.53125l0 6.171875q-0.234375 0.03125 -0.640625 0.109375q-0.40625 0.0625 -0.921875 0.109375q-0.515625 0.0625 -1.109375 0.109375q-0.59375 0.046875 -1.1875 0.046875q-0.84375 0 -1.546875 -0.171875q-0.703125 -0.171875 -1.21875 -0.53125q-0.5 -0.375 -0.796875 -0.984375q-0.28125 -0.609375 -0.28125 -1.453125q0 -0.828125 0.328125 -1.40625q0.34375 -0.59375 0.90625 -0.953125q0.578125 -0.359375 1.328125 -0.53125q0.765625 -0.171875 1.609375 -0.171875q0.265625 0 0.546875 0.03125q0.28125 0.015625 0.53125 0.0625q0.265625 0.046875 0.453125 0.09375q0.1875 0.03125 0.265625 0.0625l0 -0.5q0 -0.4375 -0.09375 -0.859375q-0.09375 -0.4375 -0.34375 -0.765625q-0.25 -0.328125 -0.671875 -0.53125q-0.421875 -0.203125 -1.109375 -0.203125q-0.875 0 -1.53125 0.125q-0.65625 0.125 -0.984375 0.25l-0.203125 -1.453125q0.34375 -0.15625 1.140625 -0.296875q0.796875 -0.140625 1.734375 -0.140625zm10.832321 10.359375q-1.203125 0 -2.109375 -0.375q-0.890625 -0.390625 -1.515625 -1.078125q-0.609375 -0.6875 -0.921875 -1.625q-0.296875 -0.9375 -0.296875 -2.078125q0 -1.140625 0.328125 -2.09375q0.34375 -0.953125 0.9375 -1.640625q0.609375 -0.6875 1.484375 -1.078125q0.890625 -0.390625 1.984375 -0.390625q0.65625 0 1.3125 0.109375q0.671875 0.109375 1.28125 0.359375l-0.390625 1.5q-0.40625 -0.1875 -0.9375 -0.296875q-0.515625 -0.109375 -1.09375 -0.109375q-1.484375 0 -2.28125 0.9375q-0.78125 0.921875 -0.78125 2.703125q0 0.796875 0.171875 1.46875q0.1875 0.65625 0.578125 1.140625q0.390625 0.46875 1.0 0.734375q0.609375 0.25 1.484375 0.25q0.703125 0 1.265625 -0.125q0.578125 -0.140625 0.890625 -0.296875l0.25 1.484375q-0.15625 0.09375 -0.4375 0.1875q-0.28125 0.078125 -0.640625 0.140625q-0.359375 0.078125 -0.78125 0.125q-0.40625 0.046875 -0.78125 0.046875zm7.9564056 -5.671875q0.5625 0.4375 1.203125 1.09375q0.640625 0.640625 1.25 1.390625q0.625 0.75 1.171875 1.515625q0.546875 0.765625 0.9375 1.4375l-2.078125 0q-0.390625 -0.671875 -0.921875 -1.359375q-0.515625 -0.6875 -1.09375 -1.328125q-0.5625 -0.640625 -1.15625 -1.171875q-0.59375 -0.53125 -1.125 -0.890625l0 4.75l-1.765625 0l0 -14.4375l1.765625 -0.3125l0 9.015625q0.46875 -0.453125 1.015625 -1.0q0.546875 -0.5625 1.078125 -1.125q0.53125 -0.578125 1.0 -1.09375q0.484375 -0.53125 0.828125 -0.921875l2.0625 0q-0.4375 0.46875 -0.953125 1.046875q-0.5 0.5625 -1.0625 1.140625q-0.546875 0.578125 -1.109375 1.15625q-0.546875 0.578125 -1.046875 1.09375zm6.160446 -4.15625q0.6093674 -0.15625 1.6093674 -0.328125q1.015625 -0.171875 2.328125 -0.171875q1.171875 0 1.953125 0.34375q0.78125 0.328125 1.25 0.921875q0.46875 0.59375 0.65625 1.4375q0.1875 0.828125 0.1875 1.84375l0 5.546875l-1.765625 0l0 -5.171875q0 -0.90625 -0.125 -1.546875q-0.125 -0.65625 -0.40625 -1.046875q-0.28125 -0.40625 -0.765625 -0.578125q-0.46875 -0.1875 -1.171875 -0.1875q-0.28125 0 -0.59375 0.015625q-0.296875 0.015625 -0.578125 0.046875q-0.28125 0.03125 -0.5 0.078125q-0.21875 0.03125 -0.3125 0.046875l0 8.34375l-1.7656174 0l0 -9.59375zm19.427437 4.65625q0 1.171875 -0.34375 2.125q-0.328125 0.953125 -0.953125 1.640625q-0.609375 0.671875 -1.46875 1.046875q-0.859375 0.375 -1.859375 0.375q-1.015625 0 -1.875 -0.375q-0.84375 -0.375 -1.46875 -1.046875q-0.609375 -0.6875 -0.953125 -1.640625q-0.34375 -0.953125 -0.34375 -2.125q0 -1.15625 0.34375 -2.109375q0.34375 -0.96875 0.953125 -1.65625q0.625 -0.6875 1.46875 -1.046875q0.859375 -0.375 1.875 -0.375q1.0 0 1.859375 0.375q0.859375 0.359375 1.46875 1.046875q0.625 0.6875 0.953125 1.65625q0.34375 0.953125 0.34375 2.109375zm-1.84375 0q0 -1.671875 -0.75 -2.640625q-0.75 -0.984375 -2.03125 -0.984375q-1.296875 0 -2.046875 0.984375q-0.75 0.96875 -0.75 2.640625q0 1.671875 0.75 2.65625q0.75 0.96875 2.046875 0.96875q1.28125 0 2.03125 -0.96875q0.75 -0.984375 0.75 -2.65625zm12.210312 4.9375q-0.53125 -1.375 -1.140625 -3.125q-0.59375 -1.765625 -1.078125 -3.65625q-0.5 1.890625 -1.09375 3.65625q-0.578125 1.75 -1.109375 3.125l-1.546875 0q-0.875 -1.953125 -1.71875 -4.453125q-0.828125 -2.515625 -1.5625 -5.421875l1.890625 0q0.203125 0.890625 0.46875 1.9375q0.265625 1.046875 0.546875 2.09375q0.296875 1.03125 0.625 2.0q0.328125 0.96875 0.609375 1.703125q0.328125 -0.90625 0.640625 -1.890625q0.3125 -1.0 0.59375 -2.015625q0.28125 -1.015625 0.53125 -2.0q0.265625 -0.984375 0.453125 -1.828125l1.46875 0q0.171875 0.84375 0.40625 1.828125q0.25 0.984375 0.53125 2.0q0.296875 1.015625 0.609375 2.015625q0.3125 0.984375 0.640625 1.890625q0.28125 -0.734375 0.59375 -1.703125q0.3125 -0.96875 0.609375 -2.0q0.3125 -1.046875 0.578125 -2.09375q0.265625 -1.046875 0.453125 -1.9375l1.828125 0q-0.734375 2.90625 -1.578125 5.421875q-0.828125 2.5 -1.703125 4.453125l-1.546875 0zm9.386536 0.1875q-1.640625 -0.03125 -2.328125 -0.6875q-0.671875 -0.671875 -0.671875 -2.078125l0 -11.859375l1.765625 -0.3125l0 11.875q0 0.4375 0.078125 0.734375q0.078125 0.28125 0.25 0.453125q0.171875 0.171875 0.453125 0.265625q0.28125 0.078125 0.703125 0.125l-0.25 1.484375zm1.5775299 -5.109375q0 -1.3125 0.375 -2.28125q0.390625 -0.984375 1.015625 -1.625q0.625 -0.65625 1.4375 -0.96875q0.8125 -0.328125 1.671875 -0.328125q2.0 0 3.0625 1.25q1.0625 1.234375 1.0625 3.78125q0 0.109375 0 0.296875q0 0.1875 -0.015625 0.328125l-6.765625 0q0.109375 1.546875 0.890625 2.34375q0.78125 0.796875 2.4375 0.796875q0.921875 0 1.5625 -0.15625q0.640625 -0.171875 0.953125 -0.328125l0.25 1.484375q-0.3125 0.171875 -1.125 0.359375q-0.8125 0.203125 -1.828125 0.203125q-1.296875 0 -2.234375 -0.390625q-0.9375 -0.390625 -1.546875 -1.078125q-0.609375 -0.6875 -0.90625 -1.625q-0.296875 -0.9375 -0.296875 -2.0625zm6.78125 -0.96875q0.015625 -1.203125 -0.609375 -1.96875q-0.609375 -0.765625 -1.6875 -0.765625q-0.609375 0 -1.078125 0.234375q-0.46875 0.234375 -0.796875 0.625q-0.3125 0.375 -0.5 0.875q-0.171875 0.484375 -0.234375 1.0l4.90625 0zm10.585098 -1.90625q-0.328125 -0.265625 -0.9375 -0.5q-0.609375 -0.25 -1.328125 -0.25q-0.75 0 -1.296875 0.28125q-0.546875 0.265625 -0.890625 0.75q-0.34375 0.484375 -0.5 1.15625q-0.140625 0.65625 -0.140625 1.421875q0 1.71875 0.84375 2.671875q0.859375 0.9375 2.296875 0.9375q0.71875 0 1.203125 -0.0625q0.484375 -0.078125 0.75 -0.140625l0 -6.265625zm0 -6.640625l1.765625 -0.3125l0 14.46875q-0.609375 0.171875 -1.5625 0.34375q-0.953125 0.171875 -2.1875 0.171875q-1.140625 0 -2.046875 -0.359375q-0.90625 -0.375 -1.5625 -1.03125q-0.640625 -0.671875 -1.0 -1.625q-0.34375 -0.96875 -0.34375 -2.15625q0 -1.140625 0.296875 -2.09375q0.296875 -0.953125 0.859375 -1.625q0.578125 -0.6875 1.390625 -1.0625q0.828125 -0.390625 1.90625 -0.390625q0.84375 0 1.5 0.234375q0.65625 0.21875 0.984375 0.4375l0 -5.0zm10.801041 13.453125q-0.234375 0.140625 -0.890625 0.390625q-0.65625 0.234375 -1.53125 0.234375q-0.890625 0 -1.6875 -0.28125q-0.78125 -0.296875 -1.375 -0.890625q-0.578125 -0.59375 -0.921875 -1.484375q-0.34375 -0.890625 -0.34375 -2.140625q0 -1.078125 0.3125 -1.96875q0.328125 -0.90625 0.9375 -1.5625q0.625 -0.65625 1.515625 -1.03125q0.90625 -0.375 2.015625 -0.375q1.234375 0 2.15625 0.1875q0.921875 0.171875 1.5625 0.328125l0 8.8125q0 2.28125 -1.1875 3.3125q-1.171875 1.03125 -3.5625 1.03125q-0.9375 0 -1.765625 -0.15625q-0.828125 -0.15625 -1.4375 -0.359375l0.328125 -1.546875q0.53125 0.21875 1.296875 0.375q0.765625 0.15625 1.609375 0.15625q1.578125 0 2.265625 -0.625q0.703125 -0.625 0.703125 -1.984375l0 -0.421875zm-0.03125 -7.34375q-0.265625 -0.0625 -0.71875 -0.125q-0.4375 -0.078125 -1.1875 -0.078125q-1.4375 0 -2.203125 0.9375q-0.765625 0.921875 -0.765625 2.46875q0 0.84375 0.21875 1.453125q0.21875 0.609375 0.578125 1.015625q0.375 0.390625 0.859375 0.59375q0.484375 0.1875 1.0 0.1875q0.703125 0 1.296875 -0.203125q0.59375 -0.203125 0.921875 -0.46875l0 -5.78125zm4.06456 3.40625q0 -1.3125 0.375 -2.28125q0.390625 -0.984375 1.015625 -1.625q0.625 -0.65625 1.4375 -0.96875q0.8125 -0.328125 1.671875 -0.328125q2.0 0 3.0625 1.25q1.0625 1.234375 1.0625 3.78125q0 0.109375 0 0.296875q0 0.1875 -0.015625 0.328125l-6.765625 0q0.109375 1.546875 0.890625 2.34375q0.78125 0.796875 2.4375 0.796875q0.921875 0 1.5625 -0.15625q0.640625 -0.171875 0.953125 -0.328125l0.25 1.484375q-0.3125 0.171875 -1.125 0.359375q-0.8125 0.203125 -1.828125 0.203125q-1.296875 0 -2.234375 -0.390625q-0.9375 -0.390625 -1.546875 -1.078125q-0.609375 -0.6875 -0.90625 -1.625q-0.296875 -0.9375 -0.296875 -2.0625zm6.78125 -0.96875q0.015625 -1.203125 -0.609375 -1.96875q-0.609375 -0.765625 -1.6875 -0.765625q-0.609375 0 -1.078125 0.234375q-0.46875 0.234375 -0.796875 0.625q-0.3125 0.375 -0.5 0.875q-0.171875 0.484375 -0.234375 1.0l4.90625 0z" fill-rule="nonzero"></path><path fill="#bf9000" d="m131.98651 498.65292q0.78125 0 1.34375 0.125q0.5625 0.109375 0.78125 0.203125l-0.3125 1.515625q-0.234375 -0.109375 -0.65625 -0.203125q-0.40625 -0.109375 -1.015625 -0.109375q-1.234375 0 -1.734375 0.671875q-0.5 0.671875 -0.5 1.8125l0 0.859375l3.8125 0l0 1.484375l-3.8125 0l0 8.3906555l-1.765625 0l0 -10.7656555q0 -1.90625 0.921875 -2.9375q0.9375 -1.046875 2.9375 -1.046875zm6.685684 13.4844055q0.625 0 1.109375 -0.03125q0.484375 -0.03125 0.8125 -0.10940552l0 -2.9375q-0.1875 -0.109375 -0.625 -0.171875q-0.421875 -0.0625 -1.03125 -0.0625q-0.390625 0 -0.84375 0.0625q-0.4375 0.046875 -0.8125 0.234375q-0.375 0.171875 -0.625 0.484375q-0.234375 0.3125 -0.234375 0.828125q0 0.953125 0.59375 1.328125q0.609375 0.37503052 1.65625 0.37503052zm-0.140625 -8.8594055q1.0625 0 1.78125 0.28125q0.734375 0.265625 1.171875 0.78125q0.453125 0.5 0.640625 1.1875q0.203125 0.6875 0.203125 1.53125l0 6.1719055q-0.234375 0.03125 -0.640625 0.109375q-0.40625 0.0625 -0.921875 0.109375q-0.515625 0.0625 -1.109375 0.109375q-0.59375 0.046875 -1.1875 0.046875q-0.84375 0 -1.546875 -0.171875q-0.703125 -0.171875 -1.21875 -0.53125q-0.5 -0.375 -0.796875 -0.9844055q-0.28125 -0.609375 -0.28125 -1.453125q0 -0.828125 0.328125 -1.40625q0.34375 -0.59375 0.90625 -0.953125q0.578125 -0.359375 1.328125 -0.53125q0.765625 -0.171875 1.609375 -0.171875q0.265625 0 0.546875 0.03125q0.28125 0.015625 0.53125 0.0625q0.265625 0.046875 0.453125 0.09375q0.1875 0.03125 0.265625 0.0625l0 -0.5q0 -0.4375 -0.09375 -0.859375q-0.09375 -0.4375 -0.34375 -0.765625q-0.25 -0.328125 -0.671875 -0.53125q-0.421875 -0.203125 -1.109375 -0.203125q-0.875 0 -1.53125 0.125q-0.65625 0.125 -0.984375 0.25l-0.203125 -1.453125q0.34375 -0.15625 1.140625 -0.296875q0.796875 -0.140625 1.734375 -0.140625zm8.301071 10.1250305l-1.765625 0l0 -9.8750305l1.765625 0l0 9.8750305zm-0.890625 -11.6719055q-0.46875 0 -0.8125 -0.3125q-0.328125 -0.3125 -0.328125 -0.84375q0 -0.53125 0.328125 -0.84375q0.34375 -0.3125 0.8125 -0.3125q0.484375 0 0.8125 0.3125q0.328125 0.3125 0.328125 0.84375q0 0.53125 -0.328125 0.84375q-0.328125 0.3125 -0.8125 0.3125zm6.8137817 11.8594055q-1.640625 -0.03125 -2.328125 -0.6875q-0.671875 -0.671875 -0.671875 -2.0781555l0 -11.859375l1.765625 -0.3125l0 11.875q0 0.4375 0.078125 0.734375q0.078125 0.28125 0.25 0.453125q0.171875 0.171875 0.453125 0.265625q0.28125 0.07815552 0.703125 0.12503052l-0.25 1.484375zm9.999405 -0.46875q-0.609375 0.140625 -1.609375 0.3125q-1.0 0.171875 -2.3125 0.171875q-1.140625 0 -1.921875 -0.328125q-0.765625 -0.328125 -1.25 -0.9375q-0.46875 -0.6094055 -0.6875 -1.4375305q-0.203125 -0.828125 -0.203125 -1.828125l0 -5.546875l1.765625 0l0 5.15625q0 1.8125 0.5625 2.59375q0.578125 0.7812805 1.921875 0.7812805q0.296875 0 0.59375 -0.015625q0.3125 -0.03125 0.578125 -0.046905518q0.265625 -0.03125 0.484375 -0.0625q0.21875 -0.03125 0.3125 -0.0625l0 -8.34375l1.765625 0l0 9.5937805zm6.4899445 -9.8125305q0.21875 0 0.515625 0.03125q0.296875 0.03125 0.578125 0.078125q0.296875 0.046875 0.53125 0.09375q0.234375 0.046875 0.34375 0.09375l-0.296875 1.53125q-0.21875 -0.078125 -0.703125 -0.171875q-0.484375 -0.109375 -1.234375 -0.109375q-0.5 0 -0.984375 0.109375q-0.484375 0.09375 -0.640625 0.140625l0 8.2969055l-1.765625 0l0 -9.4687805q0.625 -0.21875 1.5625 -0.421875q0.9375 -0.203125 2.09375 -0.203125zm2.9981842 5.171875q0 -1.3125 0.375 -2.28125q0.390625 -0.984375 1.015625 -1.625q0.625 -0.65625 1.4375 -0.96875q0.8125 -0.328125 1.671875 -0.328125q2.0 0 3.0625 1.25q1.0625 1.234375 1.0625 3.78125q0 0.109375 0 0.296875q0 0.1875 -0.015625 0.328125l-6.765625 0q0.109375 1.546875 0.890625 2.34375q0.78125 0.7969055 2.4375 0.7969055q0.921875 0 1.5625 -0.15628052q0.640625 -0.171875 0.953125 -0.328125l0.25 1.4844055q-0.3125 0.171875 -1.125 0.359375q-0.8125 0.203125 -1.828125 0.203125q-1.296875 0 -2.234375 -0.390625q-0.9375 -0.390625 -1.546875 -1.078125q-0.609375 -0.6875305 -0.90625 -1.6250305q-0.296875 -0.9375 -0.296875 -2.0625zm6.78125 -0.96875q0.015625 -1.203125 -0.609375 -1.96875q-0.609375 -0.765625 -1.6875 -0.765625q-0.609375 0 -1.078125 0.234375q-0.46875 0.234375 -0.796875 0.625q-0.3125 0.375 -0.5 0.875q-0.171875 0.484375 -0.234375 1.0l4.90625 0z" fill-rule="nonzero"></path></g></svg>

